<svg width="145" height="150" viewBox="0 0 145 150" fill="none" xmlns="http://www.w3.org/2000/svg">
<path d="M143.678 29.5627L113.622 60.2161C113.622 60.2161 104.64 60.2161 95.6577 50.9488C86.6755 41.6815 86.6756 32.4141 86.6756 32.4141L116.731 1.40425C99.8033 -2.87297 79.4207 2.83 66.9839 15.6617C48.3287 34.9092 64.9111 59.5032 60.0746 64.4933C33.8191 92.6517 6.87264 114.038 6.1817 115.107C-1.76404 123.305 -2.10951 136.493 5.49077 144.335C13.091 152.176 25.8733 151.82 33.8191 143.622C34.8555 142.553 56.9654 113.681 82.8754 86.9488C87.712 81.9587 110.513 100.137 129.859 80.5329C141.95 67.7013 147.823 47.028 143.678 29.5627V29.5627ZM21.7277 136.85C16.8912 136.85 13.091 132.929 13.091 127.939C13.091 122.592 16.8912 118.672 21.7277 118.672C26.5643 118.672 30.3644 122.592 30.3644 127.582C30.3644 132.573 26.5643 136.85 21.7277 136.85Z" fill="#607D8B"/>
</svg>
