<svg width="158" height="146" viewBox="0 0 158 146" fill="none" xmlns="http://www.w3.org/2000/svg">
<path d="M96.1739 21.1214V120.694H13.7391V21.1214H96.1739ZM109.913 9.05202H0V135.78H109.913V9.05202ZM24.0435 33.1907H85.8696V45.2601H24.0435V33.1907ZM24.0435 54.3121H85.8696V66.3815H24.0435V54.3121ZM24.0435 75.4335H85.8696V87.5028H24.0435V75.4335ZM24.0435 96.5549H85.8696V108.624H24.0435V96.5549ZM130.522 33.1907H158V117.676H130.522V33.1907ZM144.281 0C136.746 0 130.522 5.3256 130.522 11.8793V24.1387H158V11.8793C158 5.3256 151.786 0 144.281 0ZM130.309 126.728L144.189 146L158 126.728H130.309Z" fill="black"/>
</svg>
