<svg width="196" height="194" viewBox="0 0 196 194" fill="none" xmlns="http://www.w3.org/2000/svg">
<path d="M168.29 120L190.797 143.088L91.8304 191.999C91.8304 191.999 78.8816 198.379 72.7155 188.354C48.051 148.86 168.29 120 168.29 120" fill="#256382"/>
<path d="M89.4758 163.162C89.4758 163.162 70.7469 170.119 74.1242 183.126C77.8086 196.737 92.8532 188.57 92.8532 188.57L186.498 143.198C186.498 143.198 181.278 128.679 190.796 119L89.4758 163.162" fill="#D9E3E8"/>
<path d="M104.782 26.9998L194.265 117.842L88.5398 161L20.8141 50.5403L104.782 26.9998Z" fill="#42ADE2"/>
<path d="M185.894 129.013L123.419 155.664L184.669 126.288L185.894 129.013Z" fill="#94989B"/>
<path d="M184.975 136.887L118.519 165.658L183.75 134.162L184.975 136.887Z" fill="#94989B"/>
<path d="M185.588 141.429L100.756 179.891L184.363 138.704L185.588 141.429Z" fill="#94989B"/>
<path d="M73.0448 188C62.5993 165.203 89.3274 161.251 89.3274 161.251L21.4318 50.0004C21.4318 50.0004 6.0708 49.6964 6.0708 66.4144C6.0708 73.4056 9.143 78.573 9.143 78.573L73.0448 188Z" fill="#428BC1"/>
<path d="M26.6818 98L4.33624 120.776L102.595 169.026C102.595 169.026 115.452 175.32 121.574 165.43C146.062 126.47 26.6818 98 26.6818 98" fill="#547725"/>
<path d="M105.615 140.162C105.615 140.162 124.394 147.119 121.007 160.126C117.313 173.737 102.537 165.57 102.537 165.57L8.64599 120.198C8.64599 120.198 13.8793 105.679 4.33624 96L105.615 140.162Z" fill="#D9E3E8"/>
<path d="M89.4837 3.99976L0 95.52L105.726 139L173.451 27.716L89.4837 3.99976Z" fill="#83BF4F"/>
<path d="M9.79995 103.574L71.0499 132.95L8.57495 106.3L9.79995 103.574Z" fill="#94989B"/>
<path d="M11.025 111.448L75.9499 142.944L9.49371 114.174L11.025 111.448Z" fill="#94989B"/>
<path d="M10.4124 115.99L93.7124 157.178L8.88116 118.716L10.4124 115.99Z" fill="#94989B"/>
<path d="M122.088 165C132.533 142.368 105.805 138.445 105.805 138.445L173.701 28.0004C173.701 28.0004 189.062 27.6986 189.062 44.2955C189.062 51.236 185.99 56.3659 185.99 56.3659L122.088 165Z" fill="#699635"/>
<path d="M173.062 79L191.664 98.1109L109.025 138.423C109.025 138.423 98.0471 143.499 92.8631 135.437C72.7371 102.889 173.062 79 173.062 79Z" fill="#962C2C"/>
<path d="M106.865 115.347C106.865 115.347 91.003 121.117 94.0533 132.351C97.1036 143.889 109.61 136.906 109.61 136.906L188.003 98.3437C188.003 98.3437 183.733 86.1982 191.664 78L106.865 115.347Z" fill="#D9E3E8"/>
<path d="M121.017 0L196 76.5386L107.3 113L50.3009 19.888L121.017 0Z" fill="#ED4C5C"/>
<path d="M122.39 17L137.027 33.3417L83.0546 54L70.2477 33.0333L122.39 17Z" fill="white"/>
<path d="M188.65 86.3113L135.975 108.419L187.425 83.5857L188.65 86.3113Z" fill="#94989B"/>
<path d="M188.037 92.9739L131.687 116.899L186.812 90.2483L188.037 92.9739Z" fill="#94989B"/>
<path d="M188.65 96.6082L116.988 129.013L187.119 93.8826L188.65 96.6082Z" fill="#94989B"/>
<path d="M92.9879 136C84.473 116.919 106.673 113.588 106.673 113.588L49.5012 20.0005C49.5012 20.0005 36.4247 19.6977 36.4247 33.6297C36.4247 39.3842 38.8576 43.9273 38.8576 43.9273L92.9879 136Z" fill="#C94747"/>
</svg>
