<svg width="190" height="198" viewBox="0 0 190 198" fill="none" xmlns="http://www.w3.org/2000/svg">
<path d="M123 197.683V175.45L136.325 177.866C151.188 180.766 165.025 170.616 166.05 156.6L169.125 125.183L183.988 119.383C189.113 117.45 191.163 111.65 188.088 106.816L169.125 76.8496C166.05 40.1163 144.013 4.34961 87.125 4.34961C28.7 4.34961 0 44.9496 0 86.5163C0 104.4 6.6625 119.866 16.9125 132.916C26.1375 145 30.75 159.5 30.75 174V197.2H123V197.683Z" fill="#FFB74D"/>
<path d="M123 197.683V175.45L87.125 168.683V197.683H123Z" fill="#FF9800"/>
<path d="M146.062 101.016C150.308 101.016 153.75 97.7704 153.75 93.7664C153.75 89.7623 150.308 86.5164 146.062 86.5164C141.817 86.5164 138.375 89.7623 138.375 93.7664C138.375 97.7704 141.817 101.016 146.062 101.016Z" fill="#784719"/>
<path d="M84.05 4.34961C37.4125 4.34961 0 39.6329 0 83.6163C0 137.266 30.75 138.716 30.75 173.516L44.075 169.166C54.8375 165.783 64.0625 158.05 68.1625 147.9L82.5125 115.033L112.75 101.016V72.0163C112.75 72.0163 148.625 53.6496 148.625 22.2329C133.25 10.1496 106.087 4.34961 84.05 4.34961Z" fill="#FF5722"/>
<path d="M82 0C78.925 0 76.875 1.93333 76.875 4.83333V72.0167C76.875 74.9167 78.925 76.85 82 76.85C85.075 76.85 87.125 74.9167 87.125 72.0167V4.83333C87.125 1.93333 85.075 0 82 0Z" fill="#546E7A"/>
<path d="M163.487 144.033C123 144.033 110.7 120.35 110.187 119.383C109.162 116.966 106.087 116 103.525 116.966C100.962 117.933 99.9375 120.833 100.962 123.25C101.475 124.7 116.337 153.7 163.487 153.7C166.562 153.7 168.612 151.766 168.612 148.866C168.612 145.966 166.05 144.033 163.487 144.033Z" fill="#546E7A"/>
<path d="M164 159.016C169.661 159.016 174.25 154.688 174.25 149.35C174.25 144.011 169.661 139.683 164 139.683C158.339 139.683 153.75 144.011 153.75 149.35C153.75 154.688 158.339 159.016 164 159.016Z" fill="#37474F"/>
<path d="M82 134.85C101.813 134.85 117.875 119.702 117.875 101.016C117.875 82.3306 101.813 67.1829 82 67.1829C62.1868 67.1829 46.125 82.3306 46.125 101.016C46.125 119.702 62.1868 134.85 82 134.85Z" fill="#37474F"/>
<path d="M82 120.35C93.3218 120.35 102.5 111.694 102.5 101.016C102.5 90.3387 93.3218 81.6829 82 81.6829C70.6782 81.6829 61.5 90.3387 61.5 101.016C61.5 111.694 70.6782 120.35 82 120.35Z" fill="#546E7A"/>
</svg>
