<svg width="152" height="125" viewBox="0 0 152 125" fill="none" xmlns="http://www.w3.org/2000/svg">
<path d="M0 125H152L139.387 21.2057C139.293 12.4922 139.508 7.66667 139.508 7.66667C137.542 8.28906 134.616 8.52865 131.113 8.52865C130.52 8.52865 129.899 8.51823 129.268 8.50521C129.256 3.0651 129.367 0 129.367 0C126.325 4.11458 119.829 5.16146 112.424 5.16146C104.736 5.16146 96.0691 4.03385 89.2595 4.03385C78.7537 4.03385 76.5092 11.2604 76.0228 14.3672C75.5364 11.2474 73.2817 4.05208 62.7988 4.05208C55.9892 4.05208 47.3277 5.17969 39.6416 5.17969C32.2291 5.17969 25.7336 4.13281 22.6911 0.0130211C22.6911 0.0130211 22.8025 3.07552 22.7873 8.50261C22.1616 8.51302 21.5384 8.52604 20.9431 8.52604C17.4344 8.52604 14.516 8.28646 12.5501 7.66406C12.5501 7.66406 12.7553 12.276 12.6768 20.6484L0 125ZM131.113 13.3776C132.392 13.3776 133.565 13.3464 134.642 13.2865C134.51 27.4349 135.095 66.0859 143.48 116.099C141.927 115.843 140.379 115.554 138.837 115.232C139.83 114.807 140.618 114.229 141.15 113.451C131.538 71.599 129.605 32.9089 129.317 13.3516C129.925 13.3646 130.53 13.3776 131.113 13.3776V13.3776ZM90.2475 10.7057C95.3927 10.7057 102.278 11.3281 109.562 11.987C114.649 12.4479 119.844 12.9115 124.584 13.1719C124.876 32.4297 126.727 70.2161 135.749 111.109C135.067 111.227 134.122 111.318 132.82 111.318C128.007 111.318 121.111 110.06 114.443 108.841C106.935 107.471 99.1724 106.052 92.8391 106.052C87.9295 106.052 84.0636 107 81.016 108.451C80.8995 108.5 80.7652 108.536 80.6563 108.589L80.6385 17.4141C80.7272 16.1276 81.6088 10.7057 90.2475 10.7057V10.7057ZM27.4816 13.1719C32.2215 12.9115 37.4123 12.4479 42.4967 11.987C49.7825 11.3307 56.6681 10.7057 61.8184 10.7057C70.1759 10.7057 71.2931 15.7266 71.4223 17.5208L71.3995 108.586C71.1993 108.495 70.9612 108.422 70.7509 108.336C67.7413 106.958 63.9768 106.057 59.2116 106.057C52.8783 106.057 45.1161 107.479 37.6099 108.849C30.9371 110.07 24.0439 111.328 19.2305 111.328C17.9284 111.328 16.9809 111.237 16.3096 111.122C25.3333 70.224 27.1852 32.4245 27.4816 13.1719V13.1719ZM17.4217 13.2865C18.5009 13.3464 19.6713 13.3776 20.9507 13.3776C21.5333 13.3776 22.1413 13.3646 22.7493 13.3542C22.458 32.9063 20.5225 71.6068 10.906 113.466C11.4355 114.24 12.2157 114.818 13.1961 115.24C11.6229 115.563 10.0751 115.857 8.57027 116.102C16.9632 66.0859 17.5509 27.4349 17.4217 13.2865" fill="black"/>
<path d="M58.8804 15.1947C65.5352 15.1947 67.7292 16.8643 67.7526 16.8816L68.3698 15.9865L69 15.1115C68.7433 14.8992 66.2795 13 58.9505 13C53.4342 13 46.6239 14.5463 40.5812 15.9061C36.1776 16.9045 32.3626 17.768 30.1789 17.768L30 20C32.4041 20 36.3306 19.1078 40.8665 18.075C46.8314 16.7238 53.5587 15.1947 58.8804 15.1947" fill="black"/>
<path d="M57.4014 26.8834C63.712 26.8834 65.7987 28.3131 65.818 28.3273L66.4017 27.5664L67 26.8149C66.7564 26.6235 64.4212 25 57.469 25C52.2367 25 45.7765 26.3186 40.0449 27.4931C35.8643 28.3415 32.2459 29.0835 30.1761 29.0835L30 31C32.282 31 36.0042 30.2343 40.3102 29.3553C45.9647 28.195 52.3549 26.8834 57.4014 26.8834" fill="black"/>
<path d="M57.4031 36.1973C63.712 36.1973 65.7921 37.8591 65.8158 37.8803L66.3996 36.9898L67 36.1178C66.7542 35.8951 64.4164 34 57.4693 34C52.2407 34 45.7829 35.5399 40.0507 36.9076C35.8692 37.9016 32.2479 38.7683 30.182 38.7683L30 41C32.2834 41 36.0087 40.1094 40.3107 39.081C45.9672 37.7213 52.3541 36.1973 57.4031 36.1973Z" fill="black"/>
<path d="M56.6269 46.883C63.4447 46.883 65.6955 48.3127 65.7231 48.3258L66.354 47.5652L67 46.8111C66.7371 46.6259 64.2108 45 56.7046 45C51.0511 45 44.0656 46.3186 37.8688 47.4933C33.347 48.3454 29.4362 49.0821 27.1953 49.0821L27 51C29.4637 51 33.4998 50.235 38.1517 49.3523C44.2709 48.1907 51.1713 46.883 56.6269 46.883" fill="black"/>
<path d="M56.628 58.1335C63.443 58.1335 65.6958 60.5176 65.7154 60.542L66.3528 59.2698L67 58.015C66.7328 57.7048 64.2103 55 56.704 55C51.0559 55 44.0718 57.1959 37.8745 59.1478C33.3492 60.5664 29.4392 61.8038 27.1986 61.8038L27 65C29.4637 65 33.4938 63.7243 38.1516 62.2464C44.2679 60.312 51.1662 58.1335 56.628 58.1335" fill="black"/>
<path d="M56.112 72.1945C63.2665 72.1945 65.6296 73.8603 65.6522 73.879L66.3173 72.99L67 72.1126C66.7229 71.8951 64.0752 70 56.1977 70C50.2675 70 42.9316 71.5394 36.4271 72.9057C31.6733 73.9024 27.5645 74.7657 25.2141 74.7657L25 77C27.5897 77 31.827 76.1086 36.7143 75.0792C43.1382 73.7199 50.3859 72.1945 56.112 72.1945" fill="black"/>
<path d="M56.1211 82.8168C63.2735 82.8168 65.6321 84.9632 65.6568 84.9862L66.3222 83.8411L67 82.7132C66.724 82.4313 64.0769 80 56.1999 80C50.2725 80 42.9401 81.9795 36.431 83.7289C31.6816 85.0093 27.5682 86.1228 25.2218 86.1228L25 89C27.5903 89 31.8271 87.8491 36.7169 86.5227C43.1447 84.7791 50.3932 82.8168 56.1211 82.8168Z" fill="black"/>
<path d="M55.3395 96.5092C63.0082 96.5092 65.5308 98.4113 65.5566 98.4308L66.2693 97.4125L67 96.4137C66.7005 96.164 63.8706 94 55.435 94C49.0831 94 41.226 95.7577 34.2518 97.3195C29.1626 98.4602 24.7551 99.4394 22.2401 99.4394L22 102C24.7705 102 29.3098 100.982 34.5514 99.8042C41.4429 98.2546 49.2097 96.5092 55.3395 96.5092" fill="black"/>
<path d="M84.2526 16.8816C84.2734 16.8643 86.4674 15.1947 93.1222 15.1947C98.4491 15.1947 105.174 16.7238 111.136 18.075C115.672 19.1078 119.598 20 122 20L121.821 17.768C119.637 17.768 115.822 16.9045 111.419 15.9061C105.381 14.5463 98.5684 13 93.0521 13C85.7283 13 83.2593 14.8992 83 15.1115L83.6328 15.9865L84.2526 16.8816" fill="black"/>
<path d="M94.5323 25C87.5767 25 85.2388 26.6241 85 26.8156L85.5983 27.5674L86.1798 28.3286C86.2015 28.3168 88.286 26.8842 94.5998 26.8842C99.647 26.8842 106.033 28.1939 111.688 29.3546C115.993 30.2364 119.718 31 122 31L121.824 29.0827C119.759 29.0827 116.137 28.3428 111.956 27.4917C106.226 26.3191 99.7653 25 94.5323 25" fill="black"/>
<path d="M95.3029 34C87.791 34 85.2633 35.8958 85 36.1186L85.6466 36.9909L86.278 37.8818C86.301 37.8633 88.5553 36.1981 95.3744 36.1981C100.836 36.1981 107.735 37.7227 113.854 39.0803C118.505 40.1091 122.536 41 125 41L124.808 38.7674C122.572 38.7674 118.659 37.9004 114.135 36.9061C107.944 35.5379 100.957 34 95.3029 34" fill="black"/>
<path d="M95.2948 45C87.784 45 85.2579 46.6243 85 46.8118L85.6434 47.5661L86.2768 48.327C86.3019 48.314 88.5501 46.8837 95.3699 46.8837C100.828 46.8837 107.73 48.1919 113.851 49.3517C118.503 50.2347 122.534 51 125 51L124.797 49.0836C122.559 49.0836 118.648 48.3467 114.127 47.4942C107.933 46.319 100.948 45 95.2948 45" fill="black"/>
<path d="M95.2887 55C87.7799 55 85.2623 57.7048 85 58.015L85.6472 59.2698L86.2772 60.542C86.3042 60.5176 88.5497 58.1335 95.3696 58.1335C100.826 58.1335 107.73 60.312 113.844 62.2464C118.501 63.7243 122.534 65 125 65L124.799 61.8038C122.558 61.8038 118.646 60.5664 114.125 59.1478C107.928 57.1959 100.944 55 95.2887 55" fill="black"/>
<path d="M95.8029 70C87.925 70 85.2796 71.898 85 72.1133L85.6827 72.991L86.3478 73.8803C86.368 73.8616 88.7311 72.1953 95.8861 72.1953C101.61 72.1953 108.861 73.7212 115.288 75.0786C120.175 76.1083 124.41 77 127 77L126.783 74.765C124.435 74.765 120.326 73.9014 115.58 72.9044C109.072 71.54 101.739 70 95.8029 70" fill="black"/>
<path d="M95.8001 80C87.9231 80 85.2785 82.4349 85 82.7141L85.6753 83.8423L86.3432 84.9878C86.3654 84.9648 88.7265 82.8177 95.8814 82.8177C101.607 82.8177 108.858 84.7835 115.283 86.5219C120.173 87.8487 124.412 89 127 89L126.776 86.1218C124.427 86.1218 120.316 85.008 115.571 83.7272C109.06 81.9802 101.728 80 95.8001 80Z" fill="black"/>
<path d="M96.5669 94C88.1293 94 85.2969 96.1665 85 96.4137L85.7255 97.4125L86.4381 98.4308C86.4665 98.4113 88.9942 96.5092 96.6547 96.5092C102.792 96.5092 110.558 98.2546 117.444 99.8042C122.683 100.982 127.224 102 130 102L129.755 99.4394C127.24 99.4394 122.833 98.4602 117.746 97.3195C110.773 95.7576 102.913 94 96.5669 94Z" fill="black"/>
</svg>
