<svg width="183" height="198" viewBox="0 0 183 198" fill="none" xmlns="http://www.w3.org/2000/svg">
<path d="M151 114C137.221 98.4 118.432 88 91.5 88C64.5684 88 45.7789 98.4 32 114H151Z" fill="#2196F3"/>
<path d="M153.702 194H29.2507C22.4737 194 17.5449 190.047 16.9288 184.612L12 120.376C12 114.941 17.5449 110 24.322 110H158.631C166.024 110 171.569 114.941 170.953 120.376L166.024 184.612C165.408 190.047 160.48 194 153.702 194Z" fill="#546E7A"/>
<path d="M153 128C156.314 128 159 125.985 159 123.5C159 121.015 156.314 119 153 119C149.686 119 147 121.015 147 123.5C147 125.985 149.686 128 153 128Z" fill="#B0BEC5"/>
<path d="M91.5 79.2991C118.542 79.2991 140.463 61.5474 140.463 39.6495C140.463 17.7517 118.542 0 91.5 0C64.4583 0 42.5367 17.7517 42.5367 39.6495C42.5367 61.5474 64.4583 79.2991 91.5 79.2991Z" fill="#FFB74D"/>
<path d="M43.1488 190.318L36.4164 195.77C32.7442 198.743 26.6238 198.743 22.9515 195.77L2.75418 179.414C-0.91806 176.441 -0.91806 171.484 2.75418 168.511L9.48663 163.059C17.4432 156.616 28.4599 156.616 36.4164 163.059L43.1488 168.511C50.4933 174.954 50.4933 184.37 43.1488 190.318Z" fill="#FFB74D"/>
<path d="M139.851 168.511L146.584 163.059C154.54 156.616 165.557 156.616 173.513 163.059L180.246 168.511C183.918 171.484 183.918 176.441 180.246 179.414L160.049 195.77C156.376 198.743 150.256 198.743 146.584 195.77L139.851 190.318C132.507 184.37 132.507 174.954 139.851 168.511Z" fill="#FFB74D"/>
</svg>
